<?xml version="1.0" encoding="iso-8859-1"?>
<!-- Generator: Adobe Illustrator 21.0.0, SVG Export Plug-In . SVG Version: 6.00 Build 0)  -->
<svg xmlns="http://www.w3.org/2000/svg" xmlns:xlink="http://www.w3.org/1999/xlink" version="1.1" id="Capa_1" x="0px" y="0px" viewBox="0 0 512 512" style="enable-background:new 0 0 512 512;" xml:space="preserve" width="512px" height="512px">
<g>
	<g>
		<g>
			<path d="M503.467,494.933c-9.233,0-13.722-5.018-20.881-13.892c-7.279-9.02-16.324-20.241-34.167-20.241     s-26.897,11.221-34.133,20.241c-7.177,8.875-11.674,13.892-20.898,13.892c-9.224,0-13.722-5.018-20.872-13.884     c-2.804-3.637-5.876-7.06-9.19-10.24c0.171,0.154,0.367,0.29,0.538,0.444l71.253-243.678v-0.12l-11.093-3.516l-159.488-50.133     V307.2c0,4.713-3.82,8.533-8.533,8.533s-8.533-3.82-8.533-8.533V173.815L76.911,227.439l73.199,250.556     c-7.143-10.519-18.938-16.927-31.65-17.195c-17.826,0-26.871,11.221-34.133,20.25c-7.142,8.866-11.622,13.884-20.847,13.884     c-9.225,0-13.653-5.018-20.821-13.884c-7.27-9.02-16.299-20.25-34.125-20.25C3.82,460.8,0,464.621,0,469.333     s3.82,8.533,8.533,8.533c9.199,0,13.653,5.018,20.821,13.884c7.27,9.02,16.307,20.25,34.125,20.25     c17.818,0,26.88-11.23,34.133-20.25c7.142-8.866,11.614-13.884,20.847-13.884c9.233,0,13.696,5.018,20.847,13.884     c7.262,9.028,16.299,20.25,34.133,20.25s26.88-11.221,34.133-20.25c7.142-8.866,11.631-13.884,20.847-13.884     s13.696,5.018,20.847,13.884c7.262,9.028,16.299,20.25,34.133,20.25c17.835,0,26.863-11.23,34.133-20.25     c7.134-8.866,11.622-13.884,20.83-13.884s13.713,5.018,20.864,13.884c7.262,9.028,16.307,20.25,34.133,20.25     c17.826,0,26.897-11.221,34.133-20.25c7.194-8.866,11.699-13.884,20.924-13.884s13.722,5.018,20.881,13.892     c7.279,9.02,16.324,20.241,34.167,20.241c4.713,0,8.533-3.82,8.533-8.533S508.18,494.933,503.467,494.933z M173.431,494.933     c3.723,0.062,7.37-1.055,10.419-3.191C180.805,493.885,177.155,495.003,173.431,494.933z M215.893,230.008l-93.867,29.517     c-0.829,0.259-1.692,0.391-2.56,0.393c-4.213,0.001-7.797-3.074-8.436-7.238c-0.639-4.165,1.857-8.173,5.876-9.436l93.867-29.517     c4.496-1.414,9.287,1.085,10.701,5.581C222.888,223.803,220.389,228.594,215.893,230.008z M247.467,349.867     c0-4.713,3.82-8.533,8.533-8.533s8.533,3.82,8.533,8.533v51.2c0,4.713-3.82,8.533-8.533,8.533s-8.533-3.82-8.533-8.533V349.867z      M241.537,463.17c-3.78-1.478-8.1-2.367-13.116-2.37C233.435,460.8,237.755,461.69,241.537,463.17z M304.23,481.05     c-7.134,8.866-11.622,13.884-20.83,13.884c9.199,0,13.653-5.018,20.821-13.884c7.245-9.02,16.307-20.25,34.125-20.25     C320.538,460.8,311.467,472.03,304.23,481.05z M296.107,230.008c-4.496-1.414-6.995-6.205-5.581-10.701s6.205-6.995,10.701-5.581     l93.867,29.517c4.02,1.263,6.516,5.271,5.876,9.436c-0.639,4.165-4.223,7.239-8.436,7.238c-0.868-0.002-1.731-0.134-2.56-0.393     L296.107,230.008z" fill="#fce28d"/>
			<path d="M401.067,93.867h-34.133c-4.713,0-8.533-3.821-8.533-8.533s3.82-8.533,8.533-8.533H384V51.2h-8.533V17.067H384     c4.713,0,8.533-3.82,8.533-8.533S388.713,0,384,0H136.533C131.82,0,128,3.82,128,8.533s3.82,8.533,8.533,8.533h8.533V51.2H128     v25.6h17.067c4.713,0,8.533,3.82,8.533,8.533s-3.821,8.533-8.533,8.533h-34.133v25.6h290.133V93.867z M264.533,17.067H358.4V51.2     h-93.867V17.067z M162.133,17.067h85.333V51.2h-85.333V17.067z M204.8,93.867h-25.6c-4.713,0-8.533-3.821-8.533-8.533     s3.82-8.533,8.533-8.533h25.6c4.713,0,8.533,3.82,8.533,8.533S209.513,93.867,204.8,93.867z M273.067,93.867h-34.133     c-4.713,0-8.533-3.821-8.533-8.533s3.82-8.533,8.533-8.533h34.133c4.713,0,8.533,3.82,8.533,8.533S277.779,93.867,273.067,93.867     z M332.8,93.867h-25.6c-4.713,0-8.533-3.821-8.533-8.533s3.82-8.533,8.533-8.533h25.6c4.713,0,8.533,3.82,8.533,8.533     S337.513,93.867,332.8,93.867z" fill="#fce28d"/>
			<path d="M255.735,154.078c0.094,0,0.171-0.051,0.265-0.051s0.307,0.085,0.469,0.094c1.799,0.011,3.583,0.332,5.274,0.947     l156.39,49.152v-67.686H93.867v67.652l157.013-49.34C252.439,154.298,254.084,154.038,255.735,154.078z M366.933,153.6h25.6     c4.713,0,8.533,3.82,8.533,8.533s-3.821,8.533-8.533,8.533h-25.6c-4.713,0-8.533-3.82-8.533-8.533S362.221,153.6,366.933,153.6z      M145.067,170.667h-25.6c-4.713,0-8.533-3.82-8.533-8.533s3.82-8.533,8.533-8.533h25.6c4.713,0,8.533,3.82,8.533,8.533     S149.779,170.667,145.067,170.667z" fill="#fce28d"/>
		</g>
	</g>
</g>
<g>
</g>
<g>
</g>
<g>
</g>
<g>
</g>
<g>
</g>
<g>
</g>
<g>
</g>
<g>
</g>
<g>
</g>
<g>
</g>
<g>
</g>
<g>
</g>
<g>
</g>
<g>
</g>
<g>
</g>
</svg>
